# xmcd CD database file
#
# Track frame offsets:
#	150
#	10636
#	31516
#	47936
#	65129
#	85937
#	101794
#	128545
#	145306
#	162252
#
# Disc length: 2431 seconds
#
# Revision: 0
# Processed by: cddbd v1.5.2PL0 Copyright (c) Steve Scherf et al.
# Submitted via: CDex 1.70beta2
#
DISCID=7d097d0a
DTITLE=The Arboreal Quartet - The Arboreal Quartet
DYEAR=2009
DGENRE=Jazz
TTITLE0=The Arboreal Quartet - Theme
TTITLE1=The Arboreal Quartet - Lucky
TTITLE2=The Arboreal Quartet - Shift
TTITLE3=The Arboreal Quartet - Mountain
TTITLE4=The Arboreal Quartet - Dang
TTITLE5=The Arboreal Quartet - Cycle
TTITLE6=The Arboreal Quartet - Snap
TTITLE7=The Arboreal Quartet - Upswing
TTITLE8=The Arboreal Quartet - Asleep
TTITLE9=The Arboreal Quartet - Dee
EXTD=YEAR: 2009
EXTT0=
EXTT1=
EXTT2=
EXTT3=
EXTT4=
EXTT5=
EXTT6=
EXTT7=
EXTT8=
EXTT9=
PLAYORDER=
